<svg xmlns="http://www.w3.org/2000/svg" width="96" height="96" viewBox="0 0 96 96" role="img" aria-label="Crescentsphere">
  <rect width="96" height="96" rx="24" fill="#050505"/>
  <path d="M61.5 22.5a27 27 0 1 0 0 51 24 24 0 1 1 0-51Z" fill="#f7f4ec"/>
  <circle cx="62" cy="48" r="20" fill="#050505"/>
  <path d="M28 64.5h13.2c-7.1-2.8-12.1-9.3-12.1-16.5s5-13.7 12.1-16.5H28c-6.5 3.8-10.5 9.8-10.5 16.5S21.5 60.7 28 64.5Z" fill="#5eead4"/>
  <path d="M54 37.5c3.7-4 8.3-6 13.8-6 4.2 0 7.8 1.1 10.7 3.2l-4.4 6.7c-1.7-1.3-3.7-2-6-2-2.8 0-5.1.9-6.9 2.6-1.7 1.7-2.6 3.8-2.6 6.1 0 2.4.9 4.4 2.6 6.1 1.8 1.7 4.1 2.5 6.9 2.5 2.3 0 4.3-.7 6-2l4.4 6.7c-2.9 2.2-6.5 3.2-10.7 3.2-5.5 0-10.1-2-13.8-5.9-3.6-3.9-5.4-8.4-5.4-13.6 0-5.1 1.8-9.7 5.4-13.6Z" fill="#f7f4ec"/>
</svg>
